<svg t="1713488920219" class="icon" viewBox="0 0 1024 1024" version="1.1" xmlns="http://www.w3.org/2000/svg"
     p-id="19032" width="200" height="200">
    <path d="M896 0a128 128 0 0 1 128 128v576a128 128 0 0 1-128 128H320a128 128 0 0 1-128-128v-40h56v59.968a20.032 20.032 0 0 0 40 0v-160a20.032 20.032 0 0 0-40 0v60.032H192v-352h224a32 32 0 0 0 31.488-26.24L448 240a32 32 0 0 0-32-32H192V128a128 128 0 0 1 128-128h576z m-188.032 544h-39.936a20.032 20.032 0 0 0-20.032 20.032v160a20.032 20.032 0 0 0 40 0v-60.032h19.968a60.096 60.096 0 0 0 0-120z m-119.936 0h-80a20.032 20.032 0 0 0 0 40h19.968v139.968a20.032 20.032 0 0 0 40 0V584h20.032a20.032 20.032 0 0 0 0-40z m-160 0h-80a20.032 20.032 0 0 0 0 40h19.968v139.968a20.032 20.032 0 0 0 40 0V584h19.968a20.032 20.032 0 0 0 0-40z m279.936 40a20.032 20.032 0 0 1 0 40h-19.968v-40zM544 208a32 32 0 1 0 0 64 32 32 0 0 0 0-64z m128 0a32 32 0 1 0 0 64 32 32 0 0 0 0-64z"
          fill="#3D75EF" opacity=".2" p-id="19033"></path>
    <path d="M896 320v512a128 128 0 0 1-128 128H128a128 128 0 0 1-128-128V320h896zM267.968 544a20.032 20.032 0 0 0-19.968 20.032v59.968h-80v-59.968a20.032 20.032 0 0 0-40 0v160a20.032 20.032 0 0 0 40 0v-60.032h80v59.968a20.032 20.032 0 0 0 40 0v-160a20.032 20.032 0 0 0-20.032-19.968z m440 0h-39.936a20.032 20.032 0 0 0-20.032 20.032v160a20.032 20.032 0 0 0 40 0v-60.032h19.968a60.096 60.096 0 0 0 0-120z m-119.936 0h-80a20.032 20.032 0 0 0 0 40h19.968v139.968a20.032 20.032 0 0 0 40 0V584h20.032a20.032 20.032 0 0 0 0-40z m-160 0h-80a20.032 20.032 0 0 0 0 40h19.968v139.968a20.032 20.032 0 0 0 40 0V584h19.968a20.032 20.032 0 0 0 0-40z m279.936 40a20.032 20.032 0 0 1 0 40h-19.968v-40z"
          fill="#3D75EF" p-id="19034"></path>
    <path d="M768 128a128 128 0 0 1 128 128v96H0V256a128 128 0 0 1 128-128h640zM416 208h-256a32 32 0 0 0 0 64h256a32 32 0 0 0 0-64z m128 0a32 32 0 1 0 0 64 32 32 0 0 0 0-64z m128 0a32 32 0 1 0 0 64 32 32 0 0 0 0-64z"
          fill="#3D75EF" opacity=".3" p-id="19035"></path>
</svg>