<svg t="1737537972696" class="icon" viewBox="0 0 1024 1024" version="1.1" xmlns="http://www.w3.org/2000/svg" p-id="4502"
     width="128" height="128">
    <path d="M0 0m256 0l512 0q256 0 256 256l0 512q0 256-256 256l-512 0q-256 0-256-256l0-512q0-256 256-256Z"
          fill="#296DFF" p-id="4503"></path>
    <path d="M192 192m128 0l384 0q128 0 128 128l0 384q0 128-128 128l-384 0q-128 0-128-128l0-384q0-128 128-128Z"
          fill="#FFFFFF" opacity=".9" p-id="4504"></path>
    <path d="M192 512h640v192a128 128 0 0 1-128 128H320a128 128 0 0 1-128-128v-192z" fill="#296DFF" opacity=".4"
          p-id="4505"></path>
    <path d="M256 320m16 0l160 0q16 0 16 16l0 0q0 16-16 16l-160 0q-16 0-16-16l0 0q0-16 16-16Z" fill="#296DFF"
          p-id="4506"></path>
    <path d="M288 288h448a32 32 0 0 1 32 32v192H256v-192a32 32 0 0 1 32-32z" fill="#FFFFFF" p-id="4507"></path>
    <path d="M320 352m16 0l352 0q16 0 16 16l0 0q0 16-16 16l-352 0q-16 0-16-16l0 0q0-16 16-16Z" fill="#296DFF"
          p-id="4508"></path>
    <path d="M346.368 737.216c29.376 0 47.808-17.664 47.808-39.936 0-20.928-12.672-30.528-28.992-37.632l-19.968-8.64c-10.944-4.608-23.424-9.792-23.424-23.616 0-12.48 10.368-20.352 26.304-20.352 13.056 0 23.424 4.992 32.064 13.056l9.216-11.328a57.536 57.536 0 0 0-41.28-17.28c-25.536 0-44.352 15.552-44.352 37.248 0 20.544 15.552 30.528 28.608 36.096l20.16 8.832c13.44 5.952 23.616 10.56 23.616 25.152 0 13.632-10.944 22.848-29.568 22.848-14.592 0-28.8-6.912-38.784-17.472l-10.56 12.288c12.096 12.672 29.184 20.736 49.152 20.736z m73.728-2.496h17.664v-75.648c10.368-10.56 17.664-15.936 28.416-15.936 13.824 0 19.776 8.256 19.776 27.84v63.744h17.472v-66.048c0-26.496-9.984-40.896-31.872-40.896-14.208 0-24.96 7.872-34.56 17.472l0.768-21.504v-41.856h-17.664v152.832z m158.784 2.496c14.016 0 25.152-4.608 34.176-10.56l-6.144-11.712a45.376 45.376 0 0 1-26.112 8.256c-19.776 0-33.408-14.208-34.56-36.48h70.272c0.384-2.688 0.768-6.144 0.768-9.984 0-29.76-14.976-48.96-41.664-48.96-23.808 0-46.656 20.928-46.656 54.912 0 34.368 22.08 54.528 49.92 54.528z m-32.832-62.976c2.112-20.736 15.168-32.448 29.952-32.448 16.32 0 25.92 11.328 25.92 32.448h-55.872z m115.392 62.976c4.8 0 7.68-0.768 10.176-1.536l-2.496-13.44c-1.92 0.384-2.688 0.384-3.648 0.384-2.688 0-4.8-2.112-4.8-7.488v-133.248h-17.664v132.096c0 14.784 5.376 23.232 18.432 23.232z m54.528 0c4.8 0 7.68-0.768 10.176-1.536l-2.496-13.44c-1.92 0.384-2.688 0.384-3.648 0.384-2.688 0-4.8-2.112-4.8-7.488v-133.248h-17.664v132.096c0 14.784 5.376 23.232 18.432 23.232z"
          fill="#FFFFFF" p-id="4509"></path>
</svg>