<?xml version="1.0" standalone="no"?><!DOCTYPE svg PUBLIC "-//W3C//DTD SVG 1.1//EN"
        "http://www.w3.org/Graphics/SVG/1.1/DTD/svg11.dtd">
<svg t="1713496095877" class="icon" viewBox="0 0 1024 1024" version="1.1"
     xmlns="http://www.w3.org/2000/svg" p-id="23641" width="200" height="200">
    <path d="M874.016 149.984C781.376 57.312 653.376 0 512 0 292.512 0 105.312 138.112 32.512 332.192l119.872 44.96C206.976 231.584 347.392 128 512 128c106.048 0 202.016 43.008 271.52 112.48L640 384l384 0L1024 0 874.016 149.984zM512 896c-106.048 0-202.016-42.976-271.52-112.48L384 640 0 640l0 384 149.984-149.984C242.624 966.656 370.624 1024 512 1024c219.488 0 406.688-138.112 479.488-332.192l-119.872-44.96C817.024 792.416 676.608 896 512 896z"
          fill="#000000" p-id="23642"></path>
</svg>