<svg t="1732871278521" class="icon" viewBox="0 0 1024 1024" version="1.1" xmlns="http://www.w3.org/2000/svg" p-id="1638"
     width="128" height="128">
    <path d="M0 0m204.8 0l614.4 0q204.8 0 204.8 204.8l0 614.4q0 204.8-204.8 204.8l-614.4 0q-204.8 0-204.8-204.8l0-614.4q0-204.8 204.8-204.8Z"
          fill="#2E7BFC" p-id="1639"></path>
    <path d="M765.2096 385.408H258.816v-105.5232a21.1456 21.1456 0 0 1 21.0944-21.0944h464.2304c11.648 0 21.0688 9.472 21.0944 21.0944v105.5232zM385.3824 765.184h-105.5232a21.1456 21.1456 0 0 1-21.0688-21.0944V427.5968h126.6176V765.184h-0.0256z m358.7328 0H427.5968V427.5968H765.184v316.544a21.1456 21.1456 0 0 1-21.0944 21.0688z"
          fill="#FFFFFF" p-id="1640"></path>
</svg>