<svg t="1713429088717" class="icon" viewBox="0 0 1024 1024" version="1.1" xmlns="http://www.w3.org/2000/svg" p-id="6450"
     width="200" height="200">
    <path d="M0 85.333333a85.333333 85.333333 0 0 1 85.333333-85.333333h853.333334a85.333333 85.333333 0 0 1 85.333333 85.333333v853.333334a85.333333 85.333333 0 0 1-85.333333 85.333333H85.333333a85.333333 85.333333 0 0 1-85.333333-85.333333V85.333333z m103.253333 481.365334h134.656v-47.616H156.501333V136.106667h81.408V88.490667H103.253333v478.208z m817.493334 0V88.490667h-134.656V136.106667h81.408v382.976h-81.408v47.616h134.656zM362.666667 163.285333l-24.576 29.482667-106.666667 128 49.152 40.96L362.666667 263.253333l82.090666 98.474667 49.152-40.96-106.666666-128-24.576-29.482667z m64 348.629334a42.666667 42.666667 0 1 0 0-85.333334 42.666667 42.666667 0 0 0 0 85.333334z m170.666666-42.666667a42.666667 42.666667 0 1 0-85.333333 0 42.666667 42.666667 0 0 0 85.333333 0z m85.333334 42.666667a42.666667 42.666667 0 1 0 0-85.333334 42.666667 42.666667 0 0 0 0 85.333334zM42.666667 643.157333v298.666667a42.666667 42.666667 0 0 0 42.666666 42.666667h853.333334a42.666667 42.666667 0 0 0 42.666666-42.666667v-298.666667H42.666667z m178.432 256l-36.608-59.648H174.506667v59.648H123.562667V721.493333h72.192c22.698667 0 39.850667 4.608 51.456 13.824 11.605333 9.216 17.408 24.405333 17.408 45.568 0 14.336-2.474667 25.856-7.424 34.56-4.949333 8.533333-12.8 14.762667-23.552 18.688l47.616 65.024h-60.16z m-46.592-96h12.288c10.410667 0 17.578667-1.621333 21.504-4.864 4.096-3.242667 6.144-9.045333 6.144-17.408a27.264 27.264 0 0 0-1.536-9.984 11.818667 11.818667 0 0 0-4.608-6.4 18.261333 18.261333 0 0 0-8.448-3.072 71.04 71.04 0 0 0-13.056-1.024H174.506667v42.752z m244.053333 17.92c0 5.632-0.213333 10.410667-0.554667 14.336-0.341333 3.925333-0.682667 6.4-1.024 7.424l-84.992 5.12c1.365333 5.973333 4.693333 10.325333 9.984 13.056 5.461333 2.56 12.629333 3.84 21.504 3.84 4.608 0 9.301333-0.256 14.08-0.768a112.469333 112.469333 0 0 0 25.6-5.632c3.584-1.194667 6.4-2.389333 8.448-3.584v35.84c-4.266667 2.901333-11.605333 5.461333-22.016 7.68-10.24 2.218667-22.186667 3.328-35.84 3.328-10.922667 0-20.736-1.024-29.44-3.072-8.533333-2.218667-15.872-5.973333-22.016-11.264-5.973333-5.461333-10.581333-12.8-13.824-22.016a109.525333 109.525333 0 0 1-4.864-35.328c0-14.165333 1.621333-25.856 4.864-35.072 3.242667-9.386667 7.936-16.725333 14.08-22.016 6.314667-5.461333 13.909333-9.216 22.784-11.264 9.045333-2.218667 19.285333-3.328 30.72-3.328 12.288 0 22.442667 1.28 30.464 3.84 8.021333 2.56 14.421333 6.485333 19.2 11.776 4.778667 5.12 8.106667 11.605333 9.984 19.456 1.877333 7.850667 2.816 17.066667 2.816 27.648zM375.466667 811.605333a20.053333 20.053333 0 0 0-3.84-12.8c-2.56-3.242667-7.68-4.864-15.36-4.864-8.192 0-14.250667 1.365333-18.176 4.096-3.754667 2.730667-5.888 8.362667-6.4 16.896l43.776-3.328z m202.24-50.688v126.72c0 9.557333-1.28 18.176-3.84 25.856s-7.04 14.250667-13.354667 19.712a64.170667 64.170667 0 0 1-25.6 12.544 151.04 151.04 0 0 1-40.704 4.608 232.106667 232.106667 0 0 1-22.016-1.024 125.525333 125.525333 0 0 1-11.264-1.024 160.896 160.896 0 0 1-10.496-1.28v-37.632c5.461333 1.365333 11.776 2.474667 18.944 3.328 7.168 1.024 13.738667 1.536 19.712 1.536 7.338667 0 13.568-0.426667 18.688-1.28a31.018667 31.018667 0 0 0 12.544-4.096 16.810667 16.810667 0 0 0 6.912-8.448 34.602667 34.602667 0 0 0 2.304-13.568v-3.584a28.544 28.544 0 0 1-13.056 11.776c-5.973333 2.730667-14.762667 4.096-26.368 4.096-10.922667 0-19.968-1.706667-27.136-5.12a43.221333 43.221333 0 0 1-16.896-14.336 60.714667 60.714667 0 0 1-8.704-22.016 167.04 167.04 0 0 1-2.304-28.928c0-9.386667 0.768-18.346667 2.304-26.88 1.706667-8.533333 4.608-16.042667 8.704-22.528 4.266667-6.485333 9.898667-11.605333 16.896-15.36 7.168-3.754667 16.213333-5.632 27.136-5.632 11.776 0 20.565333 1.194667 26.368 3.584 5.973333 2.218667 10.325333 5.888 13.056 11.008v-12.032h48.128z m-70.698667 104.704a32.384 32.384 0 0 0 13.568-2.304 15.957333 15.957333 0 0 0 7.424-7.168 29.866667 29.866667 0 0 0 3.072-11.776 142.592 142.592 0 0 0 0-30.464 27.306667 27.306667 0 0 0-3.072-11.264 14.72 14.72 0 0 0-7.424-6.912 29.525333 29.525333 0 0 0-13.568-2.56 21.333333 21.333333 0 0 0-12.032 3.072 20.053333 20.053333 0 0 0-6.912 7.68 36.693333 36.693333 0 0 0-3.072 11.52 129.792 129.792 0 0 0 0 27.648 39.68 39.68 0 0 0 3.072 11.776 22.186667 22.186667 0 0 0 6.912 7.936 22.826667 22.826667 0 0 0 12.032 2.816z m220.501333-10.24v43.776h-117.504V721.493333h115.968v44.032h-65.024v22.528h59.648v42.24h-59.648v25.088h66.56z m60.288-27.136l-45.056-67.328h57.856l20.736 37.632h1.536l21.248-37.632h57.344l-45.056 67.328 47.616 70.912h-58.624l-22.528-40.448h-1.536l-23.296 40.448h-58.368l48.128-70.912z"
          fill="#08A667" p-id="6451"></path>
</svg>