<?xml version="1.0" standalone="no"?><!DOCTYPE svg PUBLIC "-//W3C//DTD SVG 1.1//EN"
        "http://www.w3.org/Graphics/SVG/1.1/DTD/svg11.dtd">
<svg t="1713495990063" class="icon" viewBox="0 0 1024 1024" version="1.1"
     xmlns="http://www.w3.org/2000/svg" p-id="21839" width="200" height="200">
    <path d="M512 0h15.1552C803.328 2.56 1024 74.9568 1024 192v640C1024 951.1936 795.3408 1024 512 1024S0 951.1936 0 832v-640C0 127.2832 67.072 76.3904 174.08 43.3152l2.3552-0.7168 16.5888-4.9152 4.8128-1.3312c7.8848-2.1504 15.7696-4.096 23.7568-6.0416s13.5168-3.1744 20.48-4.608A1252.0448 1252.0448 0 0 1 465.92 0.7168c10.24 0 20.48 0 31.5392-0.6144H512z m5.12 692.8384C330.9568 692.8384 167.3216 660.8896 71.68 604.16v229.7856c0 16.4864 38.1952 46.8992 112.64 71.68C270.7456 935.3216 389.7344 952.32 517.12 952.32s246.3744-16.9984 332.8-46.2848c74.3424-25.1904 112.64-55.6032 112.64-71.68V604.16c-95.6416 56.7296-259.2768 88.6784-445.44 88.6784z m0-317.44C330.9568 375.3984 167.3216 343.4496 71.68 286.72v229.7856c0 16.4864 38.1952 46.8992 112.64 71.68C270.7456 617.8816 389.7344 634.88 517.12 634.88s246.3744-16.9984 332.8-46.2848c74.3424-25.1904 112.64-55.6032 112.64-71.68V286.72c-95.6416 56.7296-259.2768 88.6784-445.44 88.6784zM517.12 51.2h-30.6176 14.336-21.0944 6.7584c-6.0416 0-11.9808 0-17.92 0.6144h11.1616c-7.8848 0-15.7696 0.6144-23.552 0.9216l12.3904-0.512c-6.4512 0-12.9024 0.6144-19.2512 0.9216h6.8608c-6.144 0-12.288 0.6144-18.3296 1.024l11.3664-0.7168c-9.216 0-18.432 1.1264-27.5456 1.9456l16.1792-1.2288-16.896 1.3312h0.7168c-5.5296 0-11.1616 0.9216-16.6912 1.536l15.9744-1.4336c-8.192 0.6144-16.384 1.4336-24.3712 2.2528l8.3968-0.8192c-5.2224 0-10.24 1.024-15.6672 1.6384l7.2704-0.8192c-7.3728 0.7168-14.6432 1.6384-21.9136 2.56L389.12 58.2656l-19.456 2.3552 4.8128-0.6144c-6.2464 0.7168-12.288 1.6384-18.3296 2.4576l13.5168-1.9456-20.48 2.8672 6.656-0.9216-16.384 2.56 9.728-1.6384-21.504 3.6864 12.288-2.048q-9.1136 1.4336-17.8176 3.072l5.5296-1.024c-5.3248 0.9216-10.24 1.8432-15.872 2.9696l10.24-1.9456-21.6064 4.1984 11.3664-2.2528-16.7936 3.3792 5.4272-1.1264-17.408 3.7888 11.9808-2.6624-17.6128 4.096 5.632-1.3312-16.7936 4.1984 11.6736-2.8672c-5.9392 1.3312-11.776 2.8672-17.6128 4.4032l5.9392-1.536-15.0528 3.9936 8.704-2.4576-16.7936 4.7104 7.68-2.2528-16.0768 4.8128 8.3968-2.56-16.1792 4.9152 7.7824-2.3552-14.1312 4.5056 6.3488-2.1504-15.6672 5.4272-8.704 3.1744-4.096 1.536c-6.9632 2.7648-13.9264 5.632-20.48 8.6016l5.3248-2.3552-7.7824 3.4816 2.4576-1.1264-7.7824 3.584 5.3248-2.4576-8.8064 4.096 3.4816-1.6384-8.0896 3.8912 4.608-2.2528-8.6016 4.3008 3.9936-2.048-6.7584 3.4816 2.7648-1.4336c-2.7648 1.3312-5.3248 2.7648-7.7824 4.1984l5.0176-2.7648-7.5776 4.096 2.56-1.4336-6.5536 3.6864 3.9936-2.2528c-28.672 16.1792-46.2848 32.256-52.6336 44.544a19.3536 19.3536 0 0 0-2.9696 9.3184c0 17.7152 36.352 51.2 107.3152 77.9264C282.112 288.768 395.5712 307.2 517.12 307.2s235.52-18.432 317.44-50.0736C905.728 229.9904 942.08 196.9152 942.08 179.2s-36.352-51.2-107.3152-77.9264C752.128 69.632 638.6688 51.2 517.12 51.2z"
          fill="#0091FF" p-id="21840"></path>
    <path d="M288.0512 480.0512h448v320H288.0512z" fill="#FFFFFF" p-id="21841"></path>
    <path d="M416.0512 578.3552a46.8992 46.8992 0 0 1 17.6128 35.4304H409.6a31.9488 31.9488 0 0 0-11.264-19.456 39.7312 39.7312 0 0 0-24.1664-5.9392 45.056 45.056 0 0 0-21.0944 3.8912 15.6672 15.6672 0 0 0-9.0112 15.1552 16.5888 16.5888 0 0 0 10.24 14.9504 205.824 205.824 0 0 0 24.9856 9.0112 229.376 229.376 0 0 1 38.2976 14.336 35.0208 35.0208 0 0 1 19.0464 31.5392 36.7616 36.7616 0 0 1-15.36 30.72 73.5232 73.5232 0 0 1-43.4176 11.264 73.4208 73.4208 0 0 1-42.1888-10.24 49.8688 49.8688 0 0 1-20.48-40.96h23.7568a34.304 34.304 0 0 0 11.8784 23.7568 45.8752 45.8752 0 0 0 26.624 6.3488 52.0192 52.0192 0 0 0 25.3952-5.3248 16.5888 16.5888 0 0 0 9.4208-14.5408A20.48 20.48 0 0 0 399.36 660.2752a275.3536 275.3536 0 0 0-28.4672-9.6256 238.2848 238.2848 0 0 1-33.5872-12.288 32.3584 32.3584 0 0 1-16.7936-29.4912 34.7136 34.7136 0 0 1 16.384-30.72 66.1504 66.1504 0 0 1 38.912-10.24 66.56 66.56 0 0 1 40.2432 10.4448zM575.1808 589.4144A78.7456 78.7456 0 0 1 593.92 643.8912a79.6672 79.6672 0 0 1-17.408 53.248c5.3248 6.9632 10.8544 14.336 16.1792 22.1184l-15.5648 13.5168c-5.5296-7.9872-10.8544-15.5648-16.1792-22.528a75.776 75.776 0 0 1-38.2976 9.4208 67.072 67.072 0 0 1-52.8384-21.7088 78.5408 78.5408 0 0 1-18.2272-54.0672 78.7456 78.7456 0 0 1 18.2272-54.272A65.8432 65.8432 0 0 1 522.24 567.7056a66.9696 66.9696 0 0 1 52.9408 21.7088zM487.1168 604.16a60.8256 60.8256 0 0 0-11.8784 39.7312 60.6208 60.6208 0 0 0 11.8784 39.5264A43.1104 43.1104 0 0 0 522.24 698.5728a49.8688 49.8688 0 0 0 24.7808-5.9392c-7.3728-9.0112-14.336-16.9984-21.0944-24.1664L539.9552 655.36c7.168 7.5776 14.336 15.5648 21.2992 23.7568a67.8912 67.8912 0 0 0 8.192-34.816 62.5664 62.5664 0 0 0-12.0832-40.96 48.7424 48.7424 0 0 0-70.2464 0.8192zM639.8976 570.5728V696.32h79.0528v20.48h-102.4V570.5728z"
          fill="#0091FF" p-id="21842"></path>
</svg>