<svg t="1739347010249" class="icon" viewBox="0 0 1024 1024" version="1.1" xmlns="http://www.w3.org/2000/svg" p-id="6348"
     width="128" height="128">
    <path d="M25.408 24.96C41.664 8.96 63.808 0 86.784 0h681.28L1024 256v683.584c0 22.4-9.024 43.904-25.152 59.712a86.4 86.4 0 0 1-60.736 24.64H85.888c-22.784 0-44.608-8.896-60.736-24.704A83.712 83.712 0 0 1 0 939.584V85.312C0 62.656 9.152 40.96 25.408 24.96z"
          fill="#737DA0" p-id="6349"></path>
    <path d="M490.688 448v-42.688h-21.376V384h21.312v-42.688h-21.312V320h21.312v-42.688h-21.312V256h21.312v-42.688h-21.312V192h21.312v-42.688h-21.312V128h21.312v-21.312H512V128h21.312v21.312H512V192h21.312v21.312H512V256h21.312v21.312H512V320h21.312v21.312H512V384h21.312v21.312H512V448h42.688v106.688a53.312 53.312 0 0 1-106.688 0V448h42.688z m-21.376 21.312v85.312a32 32 0 0 0 64 0V469.312h-64z"
          fill="#FFFFFF" p-id="6350"></path>
    <path d="M0 640h1024v298.688c0 47.104-38.208 85.312-85.312 85.312H85.312A85.312 85.312 0 0 1 0 938.688V640z"
          fill="#626C8C" p-id="6351"></path>
    <path d="M304 725.44v21.184h123.968L295.04 918.656v20.032h171.456v-21.184H326.656l132.608-171.712v-20.288H304z m193.216 0v213.248h24.192v-213.248h-24.192z m68.992 0h87.232c48.96 0 73.472 20.928 73.472 62.72 0 42.112-24.768 63.296-73.792 63.296H590.72v87.232h-24.512v-213.248z m24.512 21.184v83.648h61.248c17.344 0 29.888-3.584 38.208-10.432 8.064-6.848 12.224-17.344 12.224-31.68s-4.16-24.768-12.544-31.04c-8.384-7.168-20.928-10.432-37.952-10.432H590.72z"
          fill="#FFFFFF" p-id="6352"></path>
    <path d="M1021.76 252.096h-165.952c-22.272 0-43.584-8.704-59.328-24.128a82.048 82.048 0 0 1-24.512-58.368V2.176l249.792 249.92"
          fill="#626C8C" p-id="6353"></path>
</svg>