<?xml version="1.0" standalone="no"?><!DOCTYPE svg PUBLIC "-//W3C//DTD SVG 1.1//EN" "http://www.w3.org/Graphics/SVG/1.1/DTD/svg11.dtd"><svg t="1719591090287" class="icon" viewBox="0 0 1024 1024" version="1.1" xmlns="http://www.w3.org/2000/svg" p-id="1628" xmlns:xlink="http://www.w3.org/1999/xlink" width="200" height="200"><path d="M109.714042 585.142857a97.52381 97.52381 0 0 1 80.359619 152.771048 390.241524 390.241524 0 0 0 427.885714 177.249524 48.761905 48.761905 0 1 1 23.356953 94.646857 488.594286 488.594286 0 0 1-539.794286-229.961143A97.52381 97.52381 0 0 1 109.714042 585.142857z m768.78019-383.75619A486.009905 486.009905 0 0 1 1011.80928 536.380952c0 86.016-22.430476 168.569905-63.536762 240.88381a97.52381 97.52381 0 1 1-90.014476-45.592381l3.754667-0.146286 7.558095-13.555809A388.729905 388.729905 0 0 0 914.28547 536.380952c0-101.083429-38.521905-196.022857-106.642285-267.995428a48.761905 48.761905 0 0 1 70.851047-66.998857zM572.952137 354.401524a97.52381 97.52381 0 0 1 35.693714 35.693714l84.455619 146.285714a97.52381 97.52381 0 0 1-84.455619 146.285715H439.734613a97.52381 97.52381 0 0 1-84.455619-146.285715l84.455619-146.285714a97.52381 97.52381 0 0 1 133.217524-35.693714zM524.190232 438.857143l-84.455619 146.285714h168.911238L524.190232 438.857143z m97.52381-438.857143a97.52381 97.52381 0 1 1-84.260572 146.627048 390.241524 390.241524 0 0 0-389.802666 287.451428 48.761905 48.761905 0 1 1-94.110476-25.502476A487.765333 487.765333 0 0 1 524.190232 48.761905l12.921905 0.243809A97.52381 97.52381 0 0 1 621.714042 0z" p-id="1629"></path></svg>