<svg t="1719583988934" class="icon" viewBox="0 0 1024 1024" version="1.1" xmlns="http://www.w3.org/2000/svg"
     p-id="33611" width="200" height="200">
    <path d="M597.232941 43.369412l383.397647 383.397647a120.711529 120.711529 0 0 1 0 170.465882L597.232941 980.630588a120.711529 120.711529 0 0 1-170.465882 0L43.369412 597.232941a120.711529 120.711529 0 0 1 0-170.465882L426.767059 43.369412a120.711529 120.711529 0 0 1 170.465882 0z"
          fill="#F19AA4" p-id="33612"></path>
    <path d="M644.517647 608.376471c-31.322353 0-57.825882 20.178824-67.764706 48.188235H499.952941c-39.755294 0-72.282353-32.527059-72.282353-72.282353v-72.884706c20.178824 15.36 45.176471 24.696471 72.282353 24.696471h76.8a72.041412 72.041412 0 0 0 140.047059-24.094118 72.041412 72.041412 0 1 0-140.047059-24.094118H499.952941c-39.755294 0-72.282353-32.527059-72.282353-72.282353v-4.517647A72.041412 72.041412 0 0 0 403.576471 271.058824a72.041412 72.041412 0 1 0-24.094118 140.047058v173.176471c0 66.56 53.910588 120.470588 120.470588 120.470588h76.8a72.041412 72.041412 0 0 0 140.047059-24.094117c0-40.056471-32.225882-72.282353-72.282353-72.282353m0-120.470589c13.251765 0 24.094118 10.842353 24.094118 24.094118s-10.842353 24.094118-24.094118 24.094118c-13.251765 0-24.094118-10.842353-24.094118-24.094118s10.842353-24.094118 24.094118-24.094118m-240.941176-168.658823c13.251765 0 24.094118 10.842353 24.094117 24.094117s-10.842353 24.094118-24.094117 24.094118c-13.251765 0-24.094118-10.842353-24.094118-24.094118s10.842353-24.094118 24.094118-24.094117m240.941176 385.505882c-13.251765 0-24.094118-10.842353-24.094118-24.094117 0-13.251765 10.842353-24.094118 24.094118-24.094118 13.251765 0 24.094118 10.842353 24.094118 24.094118 0 13.251765-10.842353 24.094118-24.094118 24.094117"
          fill="#FFFFFF" p-id="33613"></path>
</svg>