<svg t="1731390367551" class="icon" viewBox="0 0 1024 1024" version="1.1" xmlns="http://www.w3.org/2000/svg" p-id="953"
     width="128" height="128">
    <path d="M554.666667 640H213.333333c-46.933333 0-85.333333-38.4-85.333333-85.333333V213.333333c0-46.933333 38.4-85.333333 85.333333-85.333333h341.333334c46.933333 0 85.333333 38.4 85.333333 85.333333v341.333334c0 46.933333-38.4 85.333333-85.333333 85.333333z"
          fill="#666666" opacity=".3" p-id="954"></path>
    <path d="M352 384a32 32 0 0 1-22.613333-9.386667l-128-128a32.170667 32.170667 0 0 1 0-45.226666c12.373333-12.373333 32.853333-12.373333 45.226666 0L320 274.773333V224c0-17.493333 14.506667-32 32-32s32 14.506667 32 32v128c0 12.8-7.68 24.746667-19.626667 29.44-4.266667 1.706667-8.106667 2.56-12.373333 2.56z"
          fill="#FFFFFF" p-id="955"></path>
    <path d="M352 384h-128c-17.493333 0-32-14.506667-32-32s14.506667-32 32-32h128c17.493333 0 32 14.506667 32 32S369.493333 384 352 384z"
          fill="#FFFFFF" p-id="956"></path>
    <path d="M810.666667 896h-341.333334c-46.933333 0-85.333333-38.4-85.333333-85.333333v-341.333334c0-46.933333 38.4-85.333333 85.333333-85.333333h341.333334c46.933333 0 85.333333 38.4 85.333333 85.333333v341.333334a85.333333 85.333333 0 0 1-85.333333 85.333333z"
          fill="#666666" p-id="957"></path>
    <path d="M767.146667 480h-256v64h256v-64z" fill="#FFFFFF" p-id="958"></path>
    <path d="M671.146667 512h-64v256h64v-256z" fill="#FFFFFF" p-id="959"></path>
</svg>