<svg t="1729927489784" class="icon" viewBox="0 0 1024 1024" version="1.1" xmlns="http://www.w3.org/2000/svg" p-id="9660"
     width="128" height="128">
    <path d="M392.5504 402.0736a37.5808 37.5808 0 0 1-40.2432-34.2528V62.1056a37.5808 37.5808 0 0 1 40.2432-34.2016 37.5808 37.5808 0 0 1 40.2432 34.2016v305.7152a37.5808 37.5808 0 0 1-40.2432 34.2528z"
          p-id="9661" fill="#1296db"></path>
    <path d="M274.2784 199.5776a40.2432 40.2432 0 0 1-28.4672-68.6592L363.1104 13.6192a40.2432 40.2432 0 0 1 56.8832 56.8832L302.6944 187.8016a40.0896 40.0896 0 0 1-28.416 11.776z"
          p-id="9662" fill="#1296db"></path>
    <path d="M510.8736 201.5744a40.0896 40.0896 0 0 1-28.4672-11.776L365.1072 72.4992A40.2432 40.2432 0 0 1 421.9904 15.616l117.2992 117.2992a40.2432 40.2432 0 0 1-28.4672 68.6592z"
          p-id="9663" fill="#1296db"></path>
    <path d="M789.9136 1002.1376H219.5456a197.7856 197.7856 0 0 1-197.632-197.5296V431.5648a197.7344 197.7344 0 0 1 197.632-197.4272h43.7248v80.3328h-43.7248a117.1968 117.1968 0 0 0-117.0432 117.0944v373.0432A117.1456 117.1456 0 0 0 219.5456 921.6h570.368a117.1456 117.1456 0 0 0 117.0432-116.992V431.5648a117.1968 117.1968 0 0 0-117.0432-117.0944h-233.984V234.1376h233.984a197.632 197.632 0 0 1 197.4784 197.4272v373.0432a197.6832 197.6832 0 0 1-197.4784 197.5296z"
          p-id="9664" fill="#1296db"></path>
    <path d="M480.1536 536.2688h49.0496v244.0192h-49.0496z" p-id="9665" fill="#1296db"></path>
    <path d="M480.1536 521.6256h49.0496a14.6432 14.6432 0 0 1 14.6432 14.6432v244.0192a14.6432 14.6432 0 0 1-14.6432 14.6432h-49.0496a14.6432 14.6432 0 0 1-14.6432-14.6432V536.2688a14.6432 14.6432 0 0 1 14.6432-14.6432z m34.4064 29.2352h-19.8144v214.784h19.8144z"
          p-id="9666" fill="#1296db"></path>
    <path d="M422.1952 780.288m15.4624 0l134.0416 0q15.4624 0 15.4624 15.4624l0 18.5344q0 15.4624-15.4624 15.4624l-134.0416 0q-15.4624 0-15.4624-15.4624l0-18.5344q0-15.4624 15.4624-15.4624Z"
          p-id="9667" fill="#1296db"></path>
    <path d="M444.2624 765.696h120.7808a36.7616 36.7616 0 0 1 36.7104 36.7104v5.12a36.7616 36.7616 0 0 1-36.7104 36.7104H444.2624a36.7616 36.7616 0 0 1-36.7104-36.5056v-5.12a36.7616 36.7616 0 0 1 36.7104-36.9152z m120.7808 49.4592a7.4752 7.4752 0 0 0 7.4752-7.424v-5.12a7.4752 7.4752 0 0 0-7.4752-7.68H444.2624a7.4752 7.4752 0 0 0-7.4752 7.4752v5.12a7.4752 7.4752 0 0 0 7.4752 7.6288z"
          p-id="9668" fill="#1296db"></path>
    <path d="M338.4832 536.2688h49.4592v22.4768a15.36 15.36 0 0 1-15.36 15.36H353.8432a15.36 15.36 0 0 1-15.36-15.36v-22.4768z"
          p-id="9669" fill="#1296db"></path>
    <path d="M338.4832 521.6256h49.4592a14.6432 14.6432 0 0 1 14.6432 14.6432v15.8208a36.7616 36.7616 0 0 1-36.7104 36.7104h-5.12A36.7616 36.7616 0 0 1 323.84 552.0896v-15.8208A14.6432 14.6432 0 0 1 338.4832 521.6256z"
          p-id="9670" fill="#1296db"></path>
    <path d="M621.3632 536.2688h49.4592v22.4768a15.36 15.36 0 0 1-15.36 15.36h-18.7392a15.36 15.36 0 0 1-15.36-15.36v-22.4768z"
          p-id="9671" fill="#1296db"></path>
    <path d="M621.4144 521.6256h49.4592a14.6432 14.6432 0 0 1 14.6432 14.6432v15.8208a36.7616 36.7616 0 0 1-36.7104 36.7104h-5.12a36.7616 36.7616 0 0 1-36.9152-36.7104v-15.8208a14.6432 14.6432 0 0 1 14.6432-14.6432z"
          p-id="9672" fill="#1296db"></path>
    <path d="M369.2032 486.8096h271.36A29.9008 29.9008 0 0 1 670.464 516.7104v19.5584H338.4832V517.5296a30.72 30.72 0 0 1 30.72-30.72z"
          p-id="9673" fill="#1296db"></path>
    <path d="M382.6176 472.1664h245.76a57.3952 57.3952 0 0 1 57.1392 57.2928v6.8096a14.6432 14.6432 0 0 1-14.6432 14.6432H338.4832A14.6432 14.6432 0 0 1 323.84 536.2688v-5.12A58.88 58.88 0 0 1 382.6176 472.1664zM655.104 521.6256a28.1088 28.1088 0 0 0-26.9312-20.48H382.6176a29.5936 29.5936 0 0 0-28.0576 20.48z"
          p-id="9674" fill="#1296db"></path>
    <path d="M781.4144 314.4704h-265.7792a40.2432 40.2432 0 1 1 0-80.4352h265.7792a40.2432 40.2432 0 1 1 0 80.4352zM269.4144 314.4704h-44.288a40.2432 40.2432 0 1 1 0-80.4352h44.288a40.2432 40.2432 0 1 1 0 80.4352z"
          p-id="9675" fill="#1296db"></path>
</svg>